<?xml version="1.0" standalone="no"?><!DOCTYPE svg PUBLIC "-//W3C//DTD SVG 1.1//EN" "http://www.w3.org/Graphics/SVG/1.1/DTD/svg11.dtd"><svg t="1566969252250" class="icon" viewBox="0 0 1024 1024" version="1.1" xmlns="http://www.w3.org/2000/svg" p-id="1687" id="mx_n_1566969252253" width="200" height="200" xmlns:xlink="http://www.w3.org/1999/xlink"><defs><style type="text/css"></style></defs><path d="M0 440.62V687h61.49a128.05 128.05 0 0 1 240.45 0h90.8V196.89h-222S174.34 202.5 0 440.62zM324.1 245v196.72H75.9L202.51 245zM181.31 625.19a105.34 105.34 0 1 0 105.4 105.33 105.37 105.37 0 0 0-105.4-105.33zM436 196.88v490h240.77a128.05 128.05 0 0 1 240.38 0H1024v-490z m360.56 428.31A105.33 105.33 0 1 0 902 730.52a105.36 105.36 0 0 0-105.44-105.33z" fill="#13227a" p-id="1688"></path><path d="M629.06 381.93c9.69 0 17.54-12.94 17.54-28.91s-7.85-28.91-17.54-28.91-17.55 12.95-17.55 28.89 7.86 28.93 17.55 28.93z m128.49 52.77a8.75 8.75 0 0 0-7.55 13.21 100.94 100.94 0 0 1-158.59 0 8.77 8.77 0 1 0-7.76 4.3 109.72 109.72 0 0 0 174.11 0 8.76 8.76 0 0 0-0.21-17.51z m-46.07-52.78C721.17 381.93 729 369 729 353s-7.85-28.91-17.54-28.91-17.52 12.97-17.52 28.91 7.85 28.93 17.54 28.93z" fill="#13227a" p-id="1689"></path></svg>